Coordinates
nRows=17
nColumns=24

# SIMM Motion File Header:
name Coordinates
datacolumns 24
datarows 17
otherdata 1
range 1.21200000000000000000 1.22800000000000000000
endheader
time	pelvis_tx	pelvis_ty	pelvis_tz	pelvis_tilt	pelvis_list	pelvis_rotation	hip_flexion_r	hip_adduction_r	hip_rotation_r	knee_angle_r	ankle_angle_r	subtalar_angle_r	mtp_angle_r	hip_flexion_l	hip_adduction_l	hip_rotation_l	knee_angle_l	ankle_angle_l	subtalar_angle_l	mtp_angle_l	lumbar_extension	lumbar_bending	lumbar_rotation
      1.21200000000000000000	      1.86556245695333560000	      0.93876629836221770000	     -0.28924552989409918000	     -3.19632221869413740000	      0.19908647784016933000	      3.00912579802988220000	     19.80333221275828100000	     -0.86061639298721027000	      7.27979112202698180000	    -10.29610768958587700000	     -6.08169536091190110000	     -0.00000000000005067938	      0.00000000000017550795	     -9.86781818105758110000	      3.23442384065897580000	      8.58407124303515270000	    -19.24958695959839300000	      0.44844772545121037000	     -0.00000000000002124180	      0.00000000000033737211	      2.73707940517947490000	      2.83610606157707720000	     -0.95155490650060315000
      1.21300000000000010000	      1.86623791638945820000	      0.93887236420789844000	     -0.28913690588042512000	     -3.19009527459159470000	      0.19587662182655211000	      3.01411395745004460000	     19.75195032202112300000	     -0.85310030602165210000	      7.22440423044912980000	    -10.30207254040375500000	     -6.03020179850040080000	     -0.00000000000005090865	      0.00000000000017617762	     -9.83096410821460150000	      3.21643077835916100000	      8.51704152415022090000	    -19.38108973972370200000	      0.30189755765918758000	     -0.00000000000002135381	      0.00000000000033784423	      2.73969027821816180000	      2.84093359865130910000	     -0.95702192273827846000
      1.21400000000000000000	      1.86691322597843330000	      0.93897794914836696000	     -0.28902801097407510000	     -3.18363498427695910000	      0.19261040558305617000	      3.01903265778274220000	     19.70010787050873400000	     -0.84541381514546510000	      7.16950948527645520000	    -10.30754631721352900000	     -5.97908721237037270000	     -0.00000000000005114440	      0.00000000000017685092	     -9.79391633996720400000	      3.19808098759729950000	      8.44877459469950050000	    -19.51292531491201400000	      0.15424649729955792000	     -0.00000000000002146728	      0.00000000000033832828	      2.74203853075489070000	      2.84580888457960990000	     -0.96238994639111863000
      1.21500000000000010000	      1.86758838572026110000	      0.93908305318362351000	     -0.28891884517504907000	     -3.17694134775022440000	      0.18928782910967940000	      3.02388189902797590000	     19.64780485822108600000	     -0.83755692035864371000	      7.11510688650894000000	    -10.31252902001519600000	     -5.92835160252179790000	     -0.00000000000005138663	      0.00000000000017752786	     -9.75667487631536900000	      3.17937446837337840000	      8.37927045468294550000	    -19.64509368516339200000	      0.00549454437224217340	     -0.00000000000002158221	      0.00000000000033882425	      2.74412416278965980000	      2.85073191936198180000	     -0.96765897745912488000
      1.21600000000000000000	      1.86826324678046720000	      0.93918729833723336000	     -0.28880924481868381000	     -3.16996653521513490000	      0.18586239376094080000	      3.02860580941934330000	     19.59491427040935500000	     -0.82940859336735895000	      7.06157291859813530000	    -10.31680363853158000000	     -5.87823353173296590000	     -0.00000000000005163156	      0.00000000000017819690	     -9.71906851896297930000	      3.16011646106930360000	      8.30796532947518960000	    -19.77775408887157100000	     -0.14466057966503240000	     -0.00000000000002168120	      0.00000000000033927223	      2.74588740372258710000	      2.85574875383819650000	     -0.97277645720225847000
      1.21700000000000010000	      1.86893800828013280000	      0.93929125719696094000	     -0.28869949960987218000	     -3.16289799734392530000	      0.18240267212041389000	      3.03328794285942300000	     19.54182782408958400000	     -0.82116312230791710000	      7.00832849430621870000	    -10.32084222895287000000	     -5.82832130729736700000	     -0.00000000000005187739	      0.00000000000017886331	     -9.68134053037706010000	      3.14067462440517180000	      8.23605987587034600000	    -19.91057850373205800000	     -0.29528342740567187000	     -0.00000000000002177489	      0.00000000000033970422	      2.74754318095490110000	      2.86079685487902680000	     -0.97784341983710266000
      1.21800000000000000000	      1.86961262093734760000	      0.93939484354395508000	     -0.28858958223112208000	     -3.15573278096970400000	      0.17890524860902962000	      3.03791518106763680000	     19.48853441122476900000	     -0.81280109192246963000	      6.95549430842372640000	    -10.32460924053215500000	     -5.77865527611684370000	     -0.00000000000005211885	      0.00000000000017952235	     -9.64345462997946790000	      3.12102157248051790000	      8.16347981215618820000	    -20.04359754140242300000	     -0.44632508771349566000	     -0.00000000000002186605	      0.00000000000034013011	      2.74908342186791190000	      2.86588074980557920000	     -0.98285313933852003000
      1.21900000000000010000	      1.87028678706721090000	      0.93949731235274925000	     -0.28847914834255672000	     -3.14827752908643890000	      0.17529471948506956000	      3.04237773358025440000	     19.43462009872478500000	     -0.80408938355899540000	      6.90389083776946940000	    -10.32756151558541900000	     -5.72972782470150670000	     -0.00000000000005234720	      0.00000000000018015928	     -9.60509499414682640000	      3.10073487477427840000	      8.08887591811401310000	    -20.17720044750255300000	     -0.59862318572301465000	     -0.00000000000002194963	      0.00000000000034053775	      2.75027705382301370000	      2.87107202638930440000	     -0.98769112943966075000
      1.22000000000000000000	      1.87096095319707370000	      0.93959978116154330000	     -0.28836871445399131000	     -3.14082227720317550000	      0.17168419036111029000	      3.04684028609287120000	     19.38070578622480900000	     -0.79537767519552316000	      6.85228736711522400000	    -10.33051379063868500000	     -5.68080037328618030000	     -0.00000000000005257555	      0.00000000000018079620	     -9.56673535831419210000	      3.08044817706804300000	      8.01427202407185390000	    -20.31080335360264800000	     -0.75092128373249978000	     -0.00000000000002203321	      0.00000000000034094538	      2.75147068577811550000	      2.87626330297302870000	     -0.99252911954080048000
      1.22100000000000010000	      1.87163458218374410000	      0.93970111114331101000	     -0.28825778412565700000	     -3.13305430453873420000	      0.16796653221546362000	      3.05113124199078320000	     19.32615880085973400000	     -0.78631019742445196000	      6.80212825864774560000	    -10.33263963730322400000	     -5.63258884717568000000	     -0.00000000000005280041	      0.00000000000018145256	     -9.52793539478394540000	      3.05953606457361140000	      7.93776394566367130000	    -20.44496902199517800000	     -0.90419247588037444000	     -0.00000000000002210961	      0.00000000000034133029	      2.75227531253239290000	      2.88156734711498390000	     -0.99721708139910581000
      1.22200000000000000000	      1.87230803212268370000	      0.93980206151606982000	     -0.28814668831739976000	     -3.12518209161390190000	      0.16421316439592187000	      3.05536499901712500000	     19.27140092453963800000	     -0.77712412985084922000	      6.75245060424254360000	    -10.33449000783818600000	     -5.58461596283347190000	     -0.00000000000005302411	      0.00000000000018211538	     -9.48898865535450750000	      3.03841548048311870000	      7.86062113913349680000	    -20.57932227781848100000	     -1.05778803274100390000	     -0.00000000000002218362	      0.00000000000034170763	      2.75295027088639400000	      2.88690898044301570000	     -1.00185503384313110000
      1.22300000000000010000	      1.87298128611752120000	      0.93990265039107301000	     -0.28803543885102850000	     -3.11719786042182050000	      0.16042458062713830000	      3.05954189062076190000	     19.21643089721910900000	     -0.76781940028553708000	      6.70328262835186450000	    -10.33607267526726900000	     -5.53685634366652750000	     -0.00000000000005324966	      0.00000000000018278483	     -9.44991923965028310000	      3.01709163132932100000	      7.78289957468557340000	    -20.71383285086114200000	     -1.21175067092509560000	     -0.00000000000002225004	      0.00000000000034206449	      2.75348264515513770000	      2.89229177466250450000	     -1.00645164514602300000
      1.22400000000000000000	      1.87365395228005330000	      0.94000215477280902000	     -0.28792372841031538000	     -3.10887757442799420000	      0.15653034901063104000	      3.06354818595627920000	     19.16082441689730900000	     -0.75815868474509951000	      6.65564368800482420000	    -10.33685223337870700000	     -5.48973652002542690000	     -0.00000000000005348077	      0.00000000000018347413	     -9.41048179512173450000	      2.99515798698561750000	      7.70344173648444300000	    -20.84881537556177400000	     -1.36681455307945440000	     -0.00000000000002229370	      0.00000000000034235988	      2.75358726716810140000	      2.89779805155636260000	     -1.01092423302550840000
      1.22500000000000010000	      1.87432661844258530000	      0.94010165915454502000	     -0.28781201796960221000	     -3.10055728843416570000	      0.15263611739412294000	      3.06755448129179740000	     19.10521793657549900000	     -0.74849796920465972000	      6.60800474765777230000	    -10.33763179149014500000	     -5.44261669638431570000	     -0.00000000000005371188	      0.00000000000018416344	     -9.37104435059317710000	      2.97322434264190960000	      7.62398389828329480000	    -20.98379790026243400000	     -1.52187843523384770000	     -0.00000000000002233735	      0.00000000000034265527	      2.75369188918106510000	      2.90330432845022200000	     -1.01539682090499480000
      1.22600000000000000000	      1.87499852446669070000	      0.94019990471275483000	     -0.28769977945897773000	     -3.09182164173416800000	      0.14861876723013948000	      3.07135373751728880000	     19.04886244581127000000	     -0.73840965350610710000	      6.56225513229533770000	    -10.33749048832514100000	     -5.39616206802481190000	     -0.00000000000005393039	      0.00000000000018480845	     -9.33122736176868100000	      2.95056682039863280000	      7.54258635104541050000	    -21.11919970071314300000	     -1.67900663499562430000	     -0.00000000000002237237	      0.00000000000034289338	      2.75325800320466160000	      2.90896591684906540000	     -1.01974266470822310000
      1.22700000000000010000	      1.87567037981490130000	      0.94029806634939628000	     -0.28758750574369246000	     -3.08305830432042290000	      0.14459320916298993000	      3.07513919113544620000	     18.99245702101753300000	     -0.72829283113034426000	      6.51663147193186720000	    -10.33728779440837400000	     -5.34975178601740530000	     -0.00000000000005414806	      0.00000000000018545052	     -9.29138506999111160000	      2.92786103962871240000	      7.46105948987172330000	    -21.25462945288055400000	     -1.83627245593126490000	     -0.00000000000002240682	      0.00000000000034312766	      2.75278821669563370000	      2.91463785934824230000	     -1.02408005890636830000
      1.22800000000000000000	      1.87634153262299770000	      0.94039521395199610000	     -0.28747481917377249000	     -3.07392158842175520000	      0.14050120340577454000	      3.07874816347481550000	     18.93541567249534600000	     -0.71785040742732531000	      6.47272112578106280000	    -10.33634097879475500000	     -5.30382196852996750000	     -0.00000000000005438670	      0.00000000000018613540	     -9.25127542810565910000	      2.90458293786234020000	      7.37801282840566050000	    -21.39027887082097500000	     -1.99636688692364110000	     -0.00000000000002245356	      0.00000000000034337309	      2.75182425458816790000	      2.92040959528636580000	     -1.02832537034200850000
